<?xml version="1.0" encoding="utf-8"?>
<svg version="1.1" id="Camada_1"
     xmlns="http://www.w3.org/2000/svg"
     xmlns:xlink="http://www.w3.org/1999/xlink"
     viewBox="0 0 384.09 91.97"
     xml:space="preserve">

  <g>
    <path d="M6.66,89.07L8.11,0.84l46.17,0.17c5.24,0.02,9.65,0.59,13.23,1.71c3.58,1.12,6.46,2.66,8.62,4.62
      c2.17,1.96,3.72,4.27,4.66,6.93c0.94,2.66,1.38,5.54,1.33,8.64c-0.08,4.87-1.46,8.94-4.13,12.21c-2.67,3.27-5.94,5.43-9.79,6.48
      c2.05,0.45,4.05,1.23,5.99,2.35c1.95,1.12,3.68,2.58,5.19,4.4c1.51,1.82,2.72,4,3.61,6.53c0.89,2.53,1.31,5.43,1.26,8.71
      c-0.06,3.9-0.75,7.42-2.07,10.56c-1.31,3.14-3.39,5.83-6.24,8.08c-2.84,2.25-6.5,3.99-10.96,5.21c-4.46,1.23-9.83,1.82-16.1,1.8
      L6.66,89.07z M50.28,73.55c4.77,0.02,8.27-1.01,10.51-3.08c2.23-2.07,3.38-5.1,3.45-9.09c0.06-3.9-0.99-6.89-3.15-8.98
      c-2.17-2.09-5.35-3.14-9.56-3.16l-24.56-0.09l-0.4,24.32L50.28,73.55z M27.5,16.86l-0.32,19.4l23.44,0.09
      c3.65,0.01,6.49-0.77,8.53-2.36c2.04-1.59,3.09-4.11,3.14-7.56c0.05-3.01-0.89-5.34-2.83-6.99c-1.94-1.65-4.87-2.48-8.8-2.49
      L27.5,16.86z"
      fill="orange"/>
    <path d="M107.31,61.54c0.3,4.61,1.78,8.31,4.45,11.11c2.67,2.8,6.06,4.21,10.18,4.22c2.99,0.01,5.57-0.58,7.75-1.77
      c2.17-1.19,3.55-2.8,4.15-4.84l19.51,0.07c-0.99,3.28-2.47,6.19-4.43,8.76c-1.96,2.56-4.29,4.75-6.98,6.55
      c-2.7,1.81-5.69,3.19-8.98,4.15c-3.29,0.96-6.76,1.44-10.41,1.42c-11.51-0.04-20.11-3.09-25.81-9.13
      c-5.7-6.05-8.45-14.92-8.26-26.61c0.08-5.05,0.91-9.61,2.47-13.68c1.56-4.07,3.8-7.56,6.7-10.47c2.9-2.91,6.42-5.14,10.57-6.67
      c4.14-1.53,8.88-2.29,14.21-2.27c4.96,0.02,9.44,0.77,13.44,2.24c4,1.48,7.4,3.62,10.21,6.42c2.81,2.8,4.95,6.29,6.42,10.46
      c1.47,4.17,2.17,8.96,2.08,14.36c-0.02,0.98-0.06,1.95-0.12,2.92c-0.06,0.98-0.15,1.95-0.26,2.92L107.31,61.54z M135.71,50.49
      c-0.6-9.04-5.11-13.57-13.53-13.61c-8.79-0.03-13.59,4.47-14.4,13.5L135.71,50.49z"
      fill="orange"/>
    <path d="M179.45,61.81c0.3,4.61,1.78,8.31,4.45,11.11c2.67,2.8,6.06,4.21,10.18,4.22c2.99,0.01,5.57-0.58,7.75-1.77
      c2.17-1.19,3.55-2.8,4.15-4.83l19.51,0.07c-0.99,3.28-2.47,6.19-4.42,8.76c-1.96,2.56-4.29,4.75-6.98,6.55
      c-2.7,1.81-5.69,3.19-8.98,4.15c-3.29,0.96-6.76,1.44-10.41,1.42c-11.51-0.04-20.11-3.09-25.81-9.13
      c-5.7-6.05-8.45-14.92-8.26-26.61c0.08-5.05,0.91-9.61,2.47-13.68c1.56-4.07,3.8-7.56,6.7-10.47c2.9-2.91,6.42-5.14,10.56-6.67
      c4.14-1.53,8.88-2.29,14.21-2.27c4.96,0.02,9.44,0.77,13.44,2.24c4,1.48,7.4,3.62,10.21,6.42c2.81,2.8,4.95,6.29,6.42,10.46
      c1.47,4.17,2.17,8.96,2.08,14.36c-0.02,0.98-0.06,1.95-0.12,2.92c-0.06,0.98-0.15,1.95-0.26,2.92L179.45,61.81z M207.84,50.76
      c-0.6-9.04-5.11-13.57-13.53-13.61c-8.79-0.03-13.59,4.47-14.4,13.5L207.84,50.76z"
      fill="orange"/>
    <path d="M265.77,45.95l15.95,0.06v44.11l-21.88-0.08L222.38,25l18.21,0.07l26.18,43.5L265.77,45.95z"
      fill="orange"/>
    <path d="M335.75,90.33c-0.72-1.95-1.14-4.43-1.28-7.45c-1.35,2.65-3.92,4.84-7.69,6.55c-3.77,1.71-8.65,2.56-14.64,2.54
      c-8.14-0.03-13.96-1.76-17.46-5.18c-3.5-3.42-5.2-8.28-5.09-14.57c0.05-3.28,0.73-6.11,2.03-8.5c1.3-2.39,3.14-4.37,5.5-5.96
      c2.36-1.59,5.15-2.88,8.34-3.89c3.2-1.01,6.77-1.81,10.7-2.42c3.19-0.52,5.86-0.93,8.02-1.23c2.16-0.3,3.89-0.65,5.21-1.04
      c1.32-0.39,2.28-0.92,2.9-1.58c0.62-0.66,0.94-1.52,0.95-2.59c0.05-2.74-1-4.74-3.13-5.99c-2.13-1.25-4.88-1.88-8.25-1.89
      c-4.4-0.02-7.57,0.78-9.51,2.39c-1.94,1.61-3.03,3.76-3.26,6.47l-16.98-0.06c0.15-3.37,0.81-6.46,1.98-9.29
      c1.17-2.83,2.96-5.26,5.38-7.29c2.42-2.03,5.55-3.59,9.41-4.68c3.85-1.09,8.59-1.63,14.2-1.61c5.52,0.02,10.16,0.62,13.94,1.78
      c3.77,1.17,6.78,2.84,9.04,5.03c2.25,2.18,3.87,4.9,4.85,8.14c0.98,3.24,1.43,6.91,1.36,10.99l-0.68,41.41L335.75,90.33z
      M333.32,59.23c-0.67,0.62-1.77,1.12-3.32,1.52s-4.25,0.94-8.1,1.63c-5.07,0.87-8.67,2.21-10.8,4.01
      c-2.14,1.81-3.22,3.73-3.25,5.77c-0.08,4.61,2.83,6.92,8.73,6.94c2.71,0.01,5.06-0.36,7.04-1.1c1.98-0.74,3.65-1.74,5.03-2.97
      c1.38-1.23,2.43-2.67,3.16-4.31c0.73-1.64,1.15-3.38,1.28-5.24L333.32,59.23z"
      fill="orange"/>
  </g>
</svg>
